<?xml version="1.0" encoding="utf-8"?>
<!-- Generator: Adobe Illustrator 23.0.5, SVG Export Plug-In . SVG Version: 6.00 Build 0)  -->
<svg version="1.1" id="Capa_1" xmlns="http://www.w3.org/2000/svg" xmlns:xlink="http://www.w3.org/1999/xlink" x="0px" y="0px"
	 viewBox="0 0 600 600" style="enable-background:new 0 0 600 600;" xml:space="preserve">
<style type="text/css">
	.st0{fill:#FFFFFF;}
	.st1{fill:none;}
</style>
<g>
	<path class="st0" d="M55,442c-8.3,0-15-6.7-15-15l0,0V173c0-8.3,6.7-15,15-15l0,0h490c8.3,0,15,6.7,15,15l0,0v183.6l13.4,4.2
		c9.7,3,18.8,7.9,26.6,14.4V173c0-30.4-24.6-55-55-55H55c-30.4,0-55,24.6-55,55v254c0,30.4,24.6,55,55,55h273.3l-12.3-40H55z"/>
	<line class="st1" x1="376" y1="300" x2="472" y2="300"/>
	<path class="st0" d="M471.9,320h-95.8c-12.8,0-23.1-9-23.1-20s10.3-20,23.1-20h95.8c12.8,0,23.1,9,23.1,20S484.7,320,471.9,320z"/>
	<path class="st0" d="M594.3,525L546.2,476l18.7-8l0,0c18.7-7.9,27.5-29.4,19.7-48.1c-4.2-10-12.6-17.7-23-20.9l-173-53.9
		c-19.4-6.1-40.1,4.8-46.2,24.2c-2.2,7.1-2.2,14.7,0,21.8L395.9,566c6,19.5,26.6,30.4,46.1,24.4c10.2-3.2,18.6-10.6,22.9-20.4
		l12.3-28.3l48.7,51.9c3.7,4,8.9,6.4,14.4,6.5h0.2c5.4-0.1,10.6-2.3,14.3-6.2l39.4-40.7C601.9,545.3,601.9,532.8,594.3,525z
		 M540.9,550.7L485.7,492c-7.6-8-20.2-8.4-28.3-0.9c-2,1.9-3.5,4.1-4.6,6.6l-21.1,48.4l-49.4-161l159.2,49.5l-37.9,16
		c-10.2,4.3-14.9,16-10.6,26.2c1,2.3,2.4,4.4,4.1,6.2l55,56.1L540.9,550.7z"/>
	<path class="st0" d="M197.5,197.5C140.9,197.5,95,243.3,95,300s45.9,102.5,102.5,102.5S300,356.6,300,300
		C299.9,243.4,254.1,197.5,197.5,197.5z M197.5,382.5c-45.6,0-82.5-36.9-82.5-82.5s36.9-82.5,82.5-82.5S280,254.4,280,300
		C279.9,345.5,243,382.4,197.5,382.5z"/>
	<path class="st0" d="M197.5,407.5C138.1,407.5,90,359.3,90,300s48.1-107.5,107.5-107.5S305,240.6,305,300l0,0
		C304.9,359.3,256.8,407.4,197.5,407.5z M197.5,202.5c-53.8,0-97.5,43.7-97.5,97.5s43.7,97.5,97.5,97.5S295,353.8,295,300
		C294.9,246.1,251.3,202.5,197.5,202.5z M197.5,387.5c-48.3,0-87.5-39.2-87.5-87.5s39.2-87.5,87.5-87.5S285,251.6,285,300
		C284.9,348.3,245.8,387.4,197.5,387.5z M197.5,222.5c-42.8,0-77.5,34.7-77.5,77.5s34.7,77.5,77.5,77.5S275,342.8,275,300
		C274.9,257.2,240.3,222.5,197.5,222.5z"/>
	<circle class="st0" cx="226.5" cy="264.5" r="20"/>
	<circle class="st0" cx="156" cy="300" r="20"/>
	<circle class="st0" cx="227" cy="335.5" r="20"/>
	<path class="st0" d="M156,300"/>
	<polygon class="st0" points="223.7,341 141.5,300 223.7,258.9 229.3,270 169.5,300 229.3,329.9 	"/>
</g>
</svg>
