<?xml version="1.0" encoding="utf-8"?>
<!-- Generator: Adobe Illustrator 19.0.0, SVG Export Plug-In . SVG Version: 6.00 Build 0)  -->
<svg version="1.1" id="Capa_1" xmlns="http://www.w3.org/2000/svg" xmlns:xlink="http://www.w3.org/1999/xlink" x="0px" y="0px"
	 viewBox="0 0 600 600" style="enable-background:new 0 0 600 600;" xml:space="preserve">
<style type="text/css">
	.st0{fill:#FFFFFF;}
</style>
<g id="XMLID_181_">
	<path id="XMLID_298_" class="st0" d="M522.4,64H77.6C34.8,64,0,98.7,0,141.5v189.4c0,42.8,34.8,77.6,77.6,77.6h164.6l-12.1-39.5
		c-4.1-13.4-4.4-27.4-1.3-40.5H80V144h440v184.5h-15.9c28.2,10.9,47.7,37.7,49.2,68.4c0.1,1.7,0.1,3.4,0.1,5.1
		c27.4-12,46.6-39.3,46.6-71.1V141.5C600,98.7,565.2,64,522.4,64z"/>
</g>
<path id="XMLID_184_" class="st0" d="M466.6,567c-0.1,0-0.1,0-0.2,0c-5.5,0-10.7-3-14.4-7l-48.7-52.2L391,536
	c-6.2,14.3-20.3,22.9-35.9,22c-15.6-0.9-28.6-11.1-33.2-26l-53.6-174.8c-4-13.1-0.5-27.3,9.2-37c9.7-9.7,23.9-13.2,37-9.1l173,53.9
	c15,4.7,25.1,18.2,25.9,33.8c0.8,15.6-8.1,30.2-22.5,36.2c0,0,0,0,0,0l-18.7,7.5l48.1,48.9c7.6,7.8,7.6,20,0.1,27.8L481,560.3
	C477.2,564.2,472,567,466.6,567z"/>
</svg>
