<svg xmlns="http://www.w3.org/2000/svg" viewBox="0 0 24 24"><title>admin</title><path d="M0,0H24V24H0Z" style="fill:none"/><path d="M12,2A10,10,0,1,0,22,12,10,10,0,0,0,12,2Zm5.34,13.93H15.19V11.86a3,3,0,0,0-.33-1.5,1,1,0,0,0-.93-.43,2.64,2.64,0,0,0-.49.08,1.62,1.62,0,0,0-.52.23,3.42,3.42,0,0,1,.13.71v5H10.91V11.86a3,3,0,0,0-.27-1.5,1,1,0,0,0-.93-.43H9.29L8.86,10v5.93H6.72V8.51l.65-.15.79-.15c.28-.05.56-.07.85-.1a8.51,8.51,0,0,1,.86,0,3.73,3.73,0,0,1,1.36.22,2.61,2.61,0,0,1,.85.5,4.11,4.11,0,0,1,2.19-.72,3.7,3.7,0,0,1,1.51.26,2.2,2.2,0,0,1,.94.71,2.84,2.84,0,0,1,.49,1.11,7.61,7.61,0,0,1,.13,1.43Z" style="fill:#fff"/></svg>
