<svg xmlns="http://www.w3.org/2000/svg" viewBox="0 0 16 16"><title>help</title><path d="M13,3.05A7,7,0,0,0,3.05,13,7,7,0,0,0,13,3.05Z" style="fill:#63a4cc"/><path d="M8.14,2.71a3.31,3.31,0,0,0-2.27.73A2.82,2.82,0,0,0,5,5.63v.55H6.85l0-.56a1.21,1.21,0,0,1,.27-.9,1.37,1.37,0,0,1,1-.31,1,1,0,0,1,1.07,1,1.45,1.45,0,0,1-.56,1A3.55,3.55,0,0,0,7.29,9.26l0,.57H9.09l0-.63c0-.83,0-.88.71-1.55A3,3,0,0,0,11,5.34,2.66,2.66,0,0,0,8.14,2.71Z" style="fill:#fff"/><path d="M8.17,10.9a1.2,1.2,0,1,0,1.19,1.19A1.2,1.2,0,0,0,8.17,10.9Z" style="fill:#fff"/></svg>
