<?xml version="1.0"?>
<svg xmlns="http://www.w3.org/2000/svg" xmlns:xlink="http://www.w3.org/1999/xlink" version="1.1" viewBox="0 0 192 192" width="26px" height="26px"><g fill="none" fill-rule="nonzero" stroke="none" stroke-width="1" stroke-linecap="butt" stroke-linejoin="miter" stroke-miterlimit="10" stroke-dasharray="" stroke-dashoffset="0" font-family="none" font-weight="none" font-size="none" text-anchor="none" style="mix-blend-mode: normal"><path d="M0,192v-192h192v192z" fill="none"/><g fill="#ffffff"><g id="surface1"><path d="M96.23077,8.53846c-0.54808,0.02884 -1.09615,0.08654 -1.61538,0.23077c-2.33654,0.46154 -4.29808,1.99038 -5.30769,4.15385l-24,48.92308l-54.46154,8.07692c-2.68269,0.49038 -4.90384,2.42308 -5.71153,5.04808c-0.83654,2.625 -0.14424,5.48077 1.78846,7.41346l39,38.30769l-9,54c-0.46154,2.74039 0.63462,5.53846 2.88462,7.21154c2.25,1.64423 5.25,1.90384 7.73077,0.63461l48.46154,-25.61538l48.46154,25.61538c2.48077,1.26923 5.48077,1.00962 7.73077,-0.63461c2.25,-1.67308 3.34615,-4.47116 2.88462,-7.21154l-9,-54l39,-38.30769c1.93269,-1.93269 2.625,-4.78846 1.78847,-7.41346c-0.80769,-2.625 -3.02885,-4.5577 -5.71154,-5.04808l-54.46154,-8.07692l-24,-48.92308c-1.15385,-2.56731 -3.63461,-4.26923 -6.46154,-4.38462zM96,33l19.38462,39c1.09616,2.13462 3.17308,3.60577 5.53846,3.92308l43.15385,6.46154l-31.15385,30.46154c-1.78846,1.64423 -2.65385,4.06731 -2.30769,6.46154l7.38462,43.15385l-38.53846,-20.30769c-2.16346,-1.15385 -4.75961,-1.15385 -6.92308,0l-38.53846,20.30769l7.38462,-43.15385c0.34615,-2.39423 -0.51923,-4.81731 -2.30769,-6.46154l-31.15385,-30.46154l43.15385,-6.46154c2.36539,-0.31731 4.44231,-1.78846 5.53846,-3.92308z"/></g></g></g></svg>
