<?xml version="1.0" encoding="utf-8"?>
<!-- Generator: Adobe Illustrator 19.0.0, SVG Export Plug-In . SVG Version: 6.00 Build 0)  -->
<svg version="1.1" id="Capa_1" xmlns="http://www.w3.org/2000/svg" xmlns:xlink="http://www.w3.org/1999/xlink" x="0px" y="0px"
	 viewBox="0 0 600 600" style="enable-background:new 0 0 600 600;" xml:space="preserve">
<style type="text/css">
	.st0{fill:#FFFFFF;}
</style>
<g id="XMLID_1_">
	<path id="XMLID_31_" class="st0" d="M62,168c-34.3,0-62,27.8-62,62c0,34.3,27.8,62,62,62s62-27.8,62-62
		C124.1,195.8,96.3,168,62,168z M73.1,243c3.9,3.9,3.9,10.2,0,14.1c-2,2-4.5,2.9-7.1,2.9s-5.1-1-7.1-2.9l-20-20
		c-3.9-3.9-3.9-10.2,0-14.1l20-20c3.9-3.9,10.2-3.9,14.1,0s3.9,10.2,0,14.1L60.2,230L73.1,243z"/>
</g>
<circle id="XMLID_2_" class="st0" cx="196" cy="494" r="30"/>
<path id="XMLID_23_" class="st0" d="M62,168c-34.3,0-62,27.8-62,62c0,34.3,27.8,62,62,62s62-27.8,62-62C124.1,195.8,96.3,168,62,168
	z M73.1,243c3.9,3.9,3.9,10.2,0,14.1c-2,2-4.5,2.9-7.1,2.9s-5.1-1-7.1-2.9l-20-20c-3.9-3.9-3.9-10.2,0-14.1l20-20
	c3.9-3.9,10.2-3.9,14.1,0s3.9,10.2,0,14.1L60.2,230L73.1,243z"/>
<g id="XMLID_7_">
	<g id="XMLID_4_">
		<circle id="XMLID_6_" class="st0" cx="300" cy="494" r="20"/>
	</g>
</g>
<g id="XMLID_12_">
	<g id="XMLID_10_">
		<circle id="XMLID_11_" class="st0" cx="403.5" cy="494" r="20"/>
	</g>
</g>
<g id="XMLID_26_">
	<path id="XMLID_27_" class="st0" d="M538,168c-34.3,0-62,27.8-62,62c0,34.3,27.8,62,62,62s62-27.8,62-62
		C600,195.8,572.2,168,538,168z M561,237.1l-20,20c-2,2-4.5,2.9-7.1,2.9s-5.1-1-7.1-2.9c-3.9-3.9-3.9-10.2,0-14.1l12.9-12.9
		l-12.9-12.9c-3.9-3.9-3.9-10.2,0-14.1c3.9-3.9,10.2-3.9,14.1,0l20,20C564.9,226.9,564.9,233.2,561,237.1z"/>
</g>
<g id="XMLID_14_">
	<path id="XMLID_24_" class="st0" d="M534,260c-2.6,0-5.1-1-7.1-2.9c-3.9-3.9-3.9-10.2,0-14.1l12.9-12.9l-12.9-12.9
		c-3.9-3.9-3.9-10.2,0-14.1c3.9-3.9,10.2-3.9,14.1,0l17,17V100.6C558,73,535.6,51,508,51H92c-27.6,0-50,22-50,49.6v119.3L59,203
		c3.9-3.9,10.2-3.9,14.2,0s3.9,10.2,0,14.1L60.2,230L73.1,243c3.9,3.9,3.9,10.2,0,14.1c-2,2-4.5,2.9-7.1,2.9s-5.1-1-7.1-2.9
		l-17-16.9v119.3C42,387,64.5,409,92,409h416c27.6,0,50-22,50-49.5V240.1l-17,17C539.1,259.1,536.5,260,534,260z M518,360
		c0,5.5-4.5,10-10,10H92c-5.5,0-10-4.5-10-10V101c0-5.5,4.5-10,10-10h416c5.5,0,10,4.5,10,10V360z"/>
</g>
</svg>
