<?xml version="1.0" encoding="utf-8"?>
<!-- Generator: Adobe Illustrator 19.0.0, SVG Export Plug-In . SVG Version: 6.00 Build 0)  -->
<svg version="1.1" id="Capa_1" xmlns="http://www.w3.org/2000/svg" xmlns:xlink="http://www.w3.org/1999/xlink" x="0px" y="0px"
	 viewBox="0 0 600 600" style="enable-background:new 0 0 600 600;" xml:space="preserve">
<style type="text/css">
	.st0{fill:#FFFFFF;}
</style>
<g id="XMLID_61_">
	<path id="XMLID_18_" class="st0" d="M194.6,170.6c0.5-2.5,1.3-4.2,2.5-5.1c1.1-0.9,3.2-1.3,6.3-1.3h231c3,0,4.9,0.4,5.7,1.3
		c0.8,0.9,0.9,2.6,0.4,5.1l-6.8,49.8c-0.3,2-1,3.4-2.1,4c-1.1,0.6-3,1-5.5,1h-67.3c-2.5,0-4.2,0.4-4.9,1.1c-0.8,0.8-1.4,2.4-1.9,4.9
		l-29.3,207.5c-0.3,2.8-1,4.7-2.1,5.7c-1.1,1-2.8,1.5-5.1,1.5H244c-5.1,0-7.6-2-7.6-6.1c0-1.5,0.1-2.8,0.4-3.8L266,229.9v-1.1
		c0-2.3-1.3-3.4-3.8-3.4h-68c-2.8,0-4.6-0.4-5.5-1.3c-0.9-0.9-1.2-2.5-1-4.7L194.6,170.6z"/>
</g>
<g id="XMLID_312_">
	<g id="XMLID_9_">
		<path id="XMLID_17_" class="st0" d="M560,600h-90v-80h50v-50h80v90C600,582.1,582.1,600,560,600z"/>
	</g>
	<g id="XMLID_8_">
		<rect id="XMLID_16_" x="214.3" y="520" class="st0" width="171.3" height="80"/>
	</g>
	<g id="XMLID_7_">
		<path id="XMLID_15_" class="st0" d="M130,600H40c-22.1,0-40-17.9-40-40v-90h80v50h50V600z"/>
	</g>
	<g id="XMLID_6_">
		<rect id="XMLID_14_" y="214.3" class="st0" width="80" height="171.3"/>
	</g>
	<g id="XMLID_5_">
		<path id="XMLID_13_" class="st0" d="M80,130H0V40C0,17.9,17.9,0,40,0h90v80H80V130z"/>
	</g>
	<g id="XMLID_4_">
		<rect id="XMLID_12_" x="214.3" class="st0" width="171.3" height="80"/>
	</g>
	<g id="XMLID_3_">
		<path id="XMLID_11_" class="st0" d="M600,130h-80V80h-50V0h90c22.1,0,40,17.9,40,40V130z"/>
	</g>
	<g id="XMLID_2_">
		<rect id="XMLID_10_" x="520" y="214.3" class="st0" width="80" height="171.3"/>
	</g>
</g>
</svg>
