<?xml version="1.0" encoding="utf-8"?>
<!-- Generator: Adobe Illustrator 19.0.0, SVG Export Plug-In . SVG Version: 6.00 Build 0)  -->
<svg version="1.1" id="Capa_1" xmlns="http://www.w3.org/2000/svg" xmlns:xlink="http://www.w3.org/1999/xlink" x="0px" y="0px"
	 viewBox="0 0 600 600" style="enable-background:new 0 0 600 600;" xml:space="preserve">
<style type="text/css">
	.st0{fill:#FFFFFF;}
</style>
<g id="XMLID_1_">
	<g id="XMLID_61_">
		<path id="XMLID_4_" class="st0" d="M6.5,399.1c-1.3-1.5-2-3.5-2-6.2c0-1.9,0.4-4,1.2-6.4l96.2-271c1.3-3.4,2.8-5.8,4.4-7.2
			c1.6-1.3,4.1-2,7.5-2h78.3c3.2,0,6,1,8.5,3c2.5,2,4.4,4.6,5.8,7.7l95.4,270.6c0.5,2.1,0.8,3.7,0.8,4.8c0,2.4-0.5,4.4-1.6,6.2
			c-1.1,1.7-2.7,2.6-4.8,2.6h-77.9c-4.5,0-7.4-2.2-8.7-6.8l-15.5-45.7c-0.8-1.9-1.5-3.1-2.2-3.8c-0.7-0.7-1.9-1-3.8-1h-84.2
			c-3.2,0-5.2,1.5-6,4.4l-16.3,46.9c-1.6,4-4.8,6-9.5,6H11.7C9.6,401.2,7.8,400.5,6.5,399.1z M168.2,276.5c2.9,0,4.4-1.3,4.4-4
			c0-0.5-0.3-1.8-0.8-4L148,200.6c-0.5-1.3-1.3-2-2.4-2c-1.1,0-1.9,0.7-2.4,2L119,268.1c-0.5,1.1-0.8,2.4-0.8,4
			c0,2.9,1.6,4.4,4.8,4.4H168.2z"/>
		<path id="XMLID_7_" class="st0" d="M335.3,398.7c-1.7-1.7-2.6-3.8-2.6-6.2V116.7c0-2.9,0.9-5.4,2.8-7.4c1.8-2,4.2-3,7.2-3h118.4
			c41.3,0,72.6,6.6,94,19.7c21.3,13.1,32,32.5,32,58.2c0,14-3.8,25.9-11.5,35.6c-7.7,9.7-21.2,19-40.5,28c-0.5,0.3-0.8,0.7-0.8,1.4
			c0,0.7,0.3,1.1,0.8,1.4c21.5,7.9,36.7,17.4,45.7,28.2c9,10.9,13.5,24.9,13.5,42.1c0,27.3-10.4,47.5-31.2,60.6
			c-20.8,13.1-52.6,19.7-95.6,19.7H341.9C339.2,401.2,337,400.4,335.3,398.7z M467.4,221.6c9.3,0,16.7-2.5,22.3-7.5
			c5.6-5,8.3-11.5,8.3-19.5c0-8.5-3.2-15.4-9.5-20.7c-6.4-5.3-14.3-7.9-23.8-7.9h-32.6c-3.4,0-5.8,0.6-7.2,1.8c-1.3,1.2-2,3.2-2,6.2
			v38.9c0,3.2,0.5,5.4,1.6,6.8c1.1,1.3,2.8,2,5.2,2H467.4z M465.5,341.6c10.9,0,19.4-3,25.6-9.1c6.2-6.1,9.3-13.2,9.3-21.5
			c0-8.2-3-15-9.1-20.3c-6.1-5.3-14-7.9-23.8-7.9h-35.4c-3.4,0-5.8,0.7-7.2,2c-1.3,1.3-2,3.4-2,6.4v41.7c0,3.2,0.5,5.4,1.6,6.8
			c1.1,1.3,2.8,2,5.2,2H465.5z"/>
	</g>
	<g id="XMLID_2_">
		<path id="XMLID_3_" class="st0" d="M586.3,494H12.7c-7.3,0-13.2-5.7-13.2-13s5.9-13,13.2-13h573.5c7.3,0,13.2,5.7,13.2,13
			S593.6,494,586.3,494z"/>
	</g>
</g>
</svg>
